# xmcd CD database file
#
# Track frame offsets:
#	150
#	11970
#	42915
#	60804
#	78552
#	96683
#	111717
#	126282
#	146970
#	163464
#	181502
#	205375
#	222014
#	236315
#	247952
#	264791
#	279610
#	296387
#	310587
#
# Disc length: 4371 seconds
#
# Revision: 0
# Processed by: cddbd v1.5.2PL0 Copyright (c) Steve Scherf et al.
# Submitted via: CDex 1.70beta2
#
DISCID=19111113
DTITLE=Various Artist -  ALSTERTALER JAZZ MEETING
DYEAR=2009
DGENRE=Jazz
TTITLE0=Sing, Sing, Sing 
TTITLE1=Anker Werfen, Segel Setzen
TTITLE2=Chocolat
TTITLE3=New Orleans Function
TTITLE4=Mailbox Boogie
TTITLE5=Black And Tan Fantasy
TTITLE6=Rocky Top
TTITLE7=Boogie ﾴRound The World
TTITLE8=Mack The Knife
TTITLE9=Gambling Man
TTITLE10=Sliding
TTITLE11=Jonquille
TTITLE12=Easy Rider
TTITLE13=Golden Rocket
TTITLE14=Round and Round
TTITLE15=The Heebie Jeebie Blues
TTITLE16=Criminel
TTITLE17=Iﾴm Movinﾴ On
TTITLE18=Itﾴs Now Or Never
EXTD=YEAR: 2009
EXTT0=
EXTT1=
EXTT2=
EXTT3=
EXTT4=
EXTT5=
EXTT6=
EXTT7=
EXTT8=
EXTT9=
EXTT10=
EXTT11=
EXTT12=
EXTT13=
EXTT14=
EXTT15=
EXTT16=
EXTT17=
EXTT18=
PLAYORDER=
